<?xml version="1.0" encoding="utf-8"?>
<!-- Generator: Adobe Illustrator 24.2.1, SVG Export Plug-In . SVG Version: 6.00 Build 0)  -->
<svg version="1.1" id="Ebene_1" xmlns="http://www.w3.org/2000/svg" xmlns:xlink="http://www.w3.org/1999/xlink" x="0px" y="0px"
	 viewBox="0 0 470 390" style="enable-background:new 0 0 470 390;" xml:space="preserve">
<style type="text/css">
	.st0{fill:#003B79;}
</style>
<path class="st0" d="M210.1,86.5l12.6,49.9c0.6-2.9,1.3-5.6,2.1-8.5c0.6-2.2,1.3-4.5,2.1-6.7l11-34.8h22l13.4,48.2
	c1.1-4.5,2.4-8.9,3.8-13.4l11.2-34.8h25.5l-28.7,86.3h-24.6l-13.1-45.3l-15.8,45.3h-23.6l-23.9-86.3H210.1z M150.9,171.3h-28.1
	c7.4-7.6,17.5-11.9,28.1-11.9c-3.5-2.4-10.1-6.2-21.2-6.2c-12.7-0.2-24.8,5.7-32.4,15.8c-6.1,8.1-9.4,18-9.4,28.1
	c0,18.4,7.6,27.3,12.4,31.8c10,9.2,21,12.9,30.6,12.9c6.9,0,13.7-1.2,20.1-3.7c-17.4-0.1-32.7-11.4-37.8-28h37.8v3.6l0,0
	c-4.4,0-7.9,2.5-7.9,5.5s3.6,5.5,7.9,5.5l0,0v13.4c4.6-1.8,8.9-4.4,12.7-7.7c9.9-8.7,13.1-21.2,13.1-34.9V171V72.9
	c0-8.5-0.3-12.5-1.3-16.5c-2-9.4-8.7-17.1-17.7-20.4c-3.9-1.3-7.9-2-12-1.9c-6.7,0-12.6,1.1-18.4,4.5c-4.2,2.3-7.8,5.4-10.6,9.3
	c-1.6-2.5-3.5-4.8-5.6-6.9c-5.1-4.6-11.8-7-18.7-6.8c-10.7,0-17.3,4.3-20.3,7.5c-1.4,1.4-2.6,3-3.7,4.6V36H47.3v86.3h24.1v-47
	c0.2-3.8,0.3-5.8,1-7.5c1.9-5.6,7.2-9.3,13.1-9.2c8.8,0,11.5,5.6,12.3,9c0.5,2.1,0.7,4.3,0.6,6.6v48.1H124V75.6
	c0-4.6,0.2-8.8,2.9-12.6c3.7-5.1,9.6-5.6,11.5-5.6c2.5,0,5,0.7,7.2,1.9c5,3.4,5.3,8.3,5.3,13.8V171.3z M120.1,174.2h30.8v5.9h-34.7
	C117.3,178.1,118.6,176.1,120.1,174.2z M114.8,183.1h36.2v6h-6.6c-0.9-2.4-4-4.2-7.7-4.2s-6.9,1.8-7.7,4.2h-16.2
	C113.2,187.1,113.9,185.1,114.8,183.1z M112.1,192.1h17c1,2.3,4,3.9,7.6,3.9s6.6-1.6,7.6-3.9h6.7v6h-39.4
	C111.5,196.1,111.7,194.1,112.1,192.1L112.1,192.1z M112.4,207.1c-0.4-2-0.7-4.1-0.8-6.1h39.3v6.1H112.4z"/>
</svg>
